# xmcd
#
# Track frame offsets:
#	150
#	16774
#	30625
#	44361
#	65000
#	80114
#	94127
#	108005
#	122543
#	136612
#	150954
#	168811
#	180234
#	193443
#
# Disc length: 2789 seconds
#
# Revision: 5
# Processed by: cddbd v1.5.1PL0 Copyright (c) Steve Scherf et al.
# Submitted via: audiograbber 1.83.01
#
DISCID=a40ae30e
DTITLE=1995-07 Country Radio - 1995-07 Country Radio
DYEAR=1995
DGENRE=Country
TTITLE0=Toby Keith - Big Ol' Truck
TTITLE1=Hal Ketchum - Every Little Word
TTITLE2=Woody Lee - I Like The Sound Of That
TTITLE3=David Lee Murphy - Party Crowd (Remix)
TTITLE4=Carlene Carter - Love Like This
TTITLE5=Kenny Chesney - All I Need To Know
TTITLE6=Jeff Foxworthy (W/little Texas Featuring Scott Rouse) - Party All Night
TTITLE7=Martina Mcbride - Safe In The Arms Of Love
TTITLE8=Terri Clark - Better Things To Do
TTITLE9=Helen Darling - Jenny Come Back
TTITLE10=John Michael Montgomery - Sold (Remix)
TTITLE11=Junior Brown - Highway Patrol
TTITLE12=Marty Stuart - If I Ain't Got You
TTITLE13=Russ Taff - Bein' Happy
EXTD=
EXTT0=
EXTT1=
EXTT2=
EXTT3=
EXTT4=
EXTT5=
EXTT6=
EXTT7=
EXTT8=
EXTT9=
EXTT10=
EXTT11=
EXTT12=
EXTT13=
PLAYORDER=
